<svg xmlns="http://www.w3.org/2000/svg" width="452" height="466" viewBox="0 0 452 466">
  <path d="M0 0c2.05 2.66 3.87 5.35 5.57 8.25.49.84.99 1.68 1.5 2.54.53.92 1.06 1.83 1.61 2.77 1.18 2 2.35 3.99 3.53 5.99.62 1.06 1.24 2.11 1.87 3.19 3.22 5.47 6.44 10.93 9.67 16.38.66 1.12 1.32 2.24 2 3.4 5.36 9.03 10.81 18 16.28 26.96 4.5 7.37 8.89 14.78 13.07 22.34 2.78 5.02 5.77 9.9 8.8 14.77 2.4 3.9 4.72 7.83 7.03 11.78 3.1 5.29 6.22 10.56 9.38 15.81 4.24 7.05 8.43 14.12 12.6 21.21 2.79 4.73 5.59 9.46 8.42 14.17 13.74 22.92 26.55 46.19 32.67 72.44.14.62.29 1.25.44 1.9 7.51 33.17 1.85 68.4-16.2 97.2-3.05 4.64-6.52 8.79-10.24 12.9-.84.97-1.67 1.94-2.52 2.94-17.5 20.22-42.56 34.81-68.48 41.06-8.38-16.76 6.28-54.53 11.69-71.27 4.55-13.59 9.93-26.93 15.6-40.1.33-.79.67-1.57 1.01-2.38.61-1.41 1.22-2.81 1.85-4.2 1.64-3.78 2.37-6.16.85-10.05-1.53-2.26-3.08-4.37-4.75-6.5C34 224.83 34 224.83 34 212c-.66-.33-1.32-.66-2-1-.7-1.66-.7-1.66-1.34-3.84-1.14-3.62-2.4-7.15-3.79-10.68-.39-.99-.78-1.98-1.19-3-0.41-1.05-.82-2.09-1.25-3.17-2.93-7.5-5.72-15-8.21-22.65-.22-.69-.45-1.38-.68-2.09-1.1-3.37-2.18-6.75-3.23-10.14-.39-1.22-.78-2.43-1.19-3.69-.34-1.09-.68-2.17-1.03-3.29-.36-.81-.72-1.62-1.09-2.45-.99-.33-1.98-.66-3-.99-.87 3.74-1.15 7.25-1.21 11.09-.03 1.83-.03 1.83-.06 3.69-.02 1.32-.03 2.63-0.05 3.99-0.02 1.39-0.04 2.78-0.07 4.17-.06 4.47-.12 8.95-0.18 13.43-0.01 1.14-0.01 1.14-0.03 2.3-0.08 6.86-0.16 13.73-0.24 20.6-0.09 7.5-.2 15-.4 22.5-.09 3.56-.16 7.11-0.22 10.67-.03 1.55-.07 3.1-0.13 4.65-0.44 12.01 2.03 21.25 9.85 30.62.57.75 1.14 1.51 1.74 2.29-0.83 4.73-3.34 8.47-5.88 12.5-1.02 1.62-1.02 1.62-2.05 3.28-2 3.09-4.02 6.16-6.07 9.22-4.23-1.42-5.33-4.5-7.43-8.19-.77-1.33-1.54-2.66-2.31-3.98-0.37-.65-0.74-1.3-1.12-1.97-1.26-2.14-1.26-2.14-3.55-5.04-1.59-2.82-1.59-2.82-0.97-5.13 1.38-2.69 1.38-2.69 3.53-5.38 9.59-12.08 7.93-26.41 7.53-41.05-.09-3.6-.12-7.21-0.17-10.82-0.09-6.94-.24-13.89-0.42-20.83-.07-3.19-.14-6.37-0.21-9.56-0.28-14.38-.93-28.71-1.88-43.05-0.99 0-1.98 0-2.99 0-.16.63-.32 1.26-0.49 1.91-2.05 7.78-4.55 15.36-7.19 22.96-.22.63-.44 1.27-0.67 1.92-1.53 4.41-3.08 8.81-4.65 13.21-0.35.99-.7 1.99-1.06 3.01-9.87 27.57-23.09 57.36-43.65 78.78-3.39 3.43-3.39 3.43-4.44 7.96 1.71 4.79 3.64 9.46 5.65 14.12 14.9 35.19 25.75 69.66 26.5 108.13-6.93-1.29-12.79-3.43-19.12-6.5-0.92-.45-1.83-0.89-2.78-1.35-13.91-6.88-25.65-15.75-37.1-26.15-.75-.68-1.51-1.36-2.3-2.05-17.64-16.55-30.15-42.1-33.7-65.95-0.03-2-0.05-4.01 0-6-.66-.33-1.32-.66-2-1-0.66-34.98 6.41-66.07 23-97.01.43-.81.86-1.61 1.3-2.44 7.86-14.75 16.21-29.18 24.7-43.56.64-1.09 1.28-2.17 1.94-3.29 7.82-13.25 15.7-26.46 23.62-39.64 4.62-7.68 9.18-15.39 13.73-23.1 5.08-8.61 10.22-17.18 15.37-25.74 1.59-2.65 3.18-5.3 4.77-7.94.71-1.19 1.43-2.39 2.14-3.58 2.11-3.5 4.21-7.01 6.31-10.52 6.25-10.48 12.61-20.88 19.12-31.19L229 27z" fill="#F47D00" transform="translate(229,27)"/>
  <path d="M0 0c2.05 2.66 3.87 5.35 5.57 8.25.74 1.26.74 1.26 1.5 2.54.53.92 1.06 1.83 1.61 2.77 1.18 2 2.35 3.99 3.53 5.99.62 1.06 1.24 2.11 1.87 3.19 3.22 5.47 6.44 10.93 9.67 16.38.66 1.12 1.32 2.24 2 3.4 5.36 9.03 10.81 18 16.28 26.96 4.5 7.37 8.89 14.78 13.07 22.34 2.78 5.02 5.77 9.9 8.8 14.77 2.4 3.9 4.72 7.83 7.03 11.78 3.12 5.33 6.26 10.64 9.44 15.94.35.59.71 1.18 1.07 1.79 2.23 3.71 4.48 7.41 6.75 11.1.55.9 1.1 1.8 1.66 2.72 1.08 1.77 2.16 3.53 3.25 5.29.49.81.98 1.62 1.49 2.45.44.72.88 1.43 1.33 2.17 1.18 2.39 1.56 4.56 2.08 7.17.95 2.04.95 2.04 2.17 3.96.66 1.07.66 1.07 1.32 2.18.46.73.91 1.47 1.38 2.23 4.94 8.05 8.45 15.34 9.81 24.75.13.86.26 1.72.39 2.6 1.54 11.47 2.23 23.87-0.07 35.28-4.82-3.42-9.13-6.99-13.24-11.23-3.09-3.1-6.45-5.91-9.76-8.77-10.72-9.36-21.02-19.11-29.84-30.29-1.46-1.83-2.97-3.63-4.52-5.4-15-17.17-25.5-38.03-35.64-58.31-12.87 0-25.74 0-39 0-1.95 3.48-3.91 6.97-5.93 10.56-11.55 20.43-23.49 39.78-39.07 57.44-0.69.79-1.38 1.58-2.1 2.4-1.15 1.31-2.3 2.63-3.47 3.94-1.3 1.51-2.52 3.08-3.74 4.66-0.83.99-.83.99-1.69 2-0.66 0-1.32 0-2 0-0.66 1.32-1.32 2.64-2 4-0.66 0-1.32 0-2 0-0.24.57-0.48 1.15-0.73 1.75-1.51 2.68-3.24 4.23-5.58 6.25-3.04 2.66-6.07 5.34-9.02 8.11-0.57.53-1.14 1.06-1.72 1.61-1.1 1.03-2.2 2.07-3.3 3.11-3.35 3.14-6.76 5.72-10.65 8.17-4.33-21.21-1.38-44.52 9.77-62.94 1.66-2.78 3.21-5.6 4.78-8.43 3.15-5.7 6.42-11.32 9.8-16.89 3.1-5.15 6.14-10.34 9.17-15.53 1.55-2.63 3.11-5.26 4.68-7.87.64-1.06 1.28-2.13 1.93-3.22.56-.93 1.12-1.85 1.7-2.8 1.4-2.34 1.4-2.34 1.17-5.3 1-1.96 2.08-3.88 3.2-5.76.33-.57.67-1.15 1.02-1.73 1.11-1.89 2.23-3.76 3.35-5.64.77-1.31 1.55-2.62 2.33-3.94 2.36-3.98 4.73-7.96 7.1-11.93.7-1.17 1.39-2.33 2.09-3.5 3.72-6.23 7.47-12.46 11.21-18.68 2.58-4.27 5.14-8.55 7.7-12.82.48-.8.95-1.59 1.44-2.4 2.77-4.61 5.53-9.22 8.29-13.84 6.98-11.66 14-23.28 21.27-34.76L229 27z" fill="#FDA819" transform="translate(229,27)"/>
  <path d="M0 0c2.09 2.67 3.39 4.62 4 8-0.99-.5-0.99-.5-2-1 0-.66 0-1.32 0-2-0.66 0-1.32 0-2 0 .05 1.11.05 1.11.1 2.26 1.5 62.54-21.95 127.08-62.1 174.74 2.48-1.98 2.48-1.98 5-3.98.33.66.66 1.32.99 2-1.11 1.5-2.24 3-3.37 4.5-0.63.83-1.25 1.67-1.9 2.53-.57.65-1.14 1.3-1.73 1.97-0.66 0-1.32 0-2 0-0.37 1.11-0.37 1.11-0.75 2.25-1.35 2.98-2.76 4.64-5.25 6.75-0.66 0-1.32 0-2 0 0 1.65 0 3.3 0 5-0.61.24-1.23.49-1.87.75-2.48 1.45-3.08 2.62-4.13 5.25-0.66 0-1.32 0-2 0-0.24.57-0.48 1.15-0.73 1.75-1.51 2.68-3.24 4.23-5.58 6.25-3.04 2.66-6.07 5.34-9.02 8.11-0.57.53-1.14 1.06-1.72 1.61-1.1 1.03-2.2 2.07-3.3 3.11-3.35 3.14-6.76 5.72-10.65 8.17-4.33-21.21-1.38-44.52 9.77-62.94 1.66-2.78 3.21-5.6 4.78-8.43 3.15-5.7 6.42-11.32 9.8-16.89 3.1-5.15 6.14-10.34 9.17-15.53 1.55-2.63 3.11-5.26 4.68-7.87.64-1.06 1.28-2.13 1.93-3.22.56-.93 1.12-1.85 1.7-2.8 1.4-2.34 1.4-2.34 1.17-5.3 1-1.96 2.08-3.88 3.2-5.76.33-.57.67-1.15 1.02-1.73 1.11-1.89 2.23-3.76 3.35-5.64.77-1.31 1.55-2.62 2.33-3.94 2.36-3.98 4.73-7.96 7.1-11.93.7-1.17 1.39-2.33 2.09-3.5 3.72-6.23 7.47-12.46 11.21-18.68 2.58-4.27 5.14-8.55 7.7-12.82.48-.8.95-1.59 1.44-2.4 2.77-4.61 5.53-9.22 8.29-13.84 6.98-11.66 14-23.28 21.27-34.76L229 27z" fill="#F18B0F" transform="translate(229,27)"/>
  <path d="M0 0c.99 0 1.98 0 3 0 18.39 39.01 26.04 79.09 11.08 120.76-4.89 12.77-11.92 24.11-21.08 34.24-1.24 1.45-1.24 1.45-2.51 2.94-17.5 20.22-42.56 34.81-68.5 41.06-6.22-12.46 2.78-38.98 6-52 .26-1.03.51-2.05.76-3.1.26-1 .52-2 .78-3.03.23-.91.46-1.82.7-2.76 0.76-2.11.76-2.11 2.76-3.11-0.74 6.01-2.14 11.71-3.71 17.56-0.47 1.8-0.88 3.62-1.29 5.44.33.33.66.66.99.99 4.7-4.97 9.39-9.95 14.06-14.93 1.53-1.63 3.06-3.25 4.59-4.87 26.04-28.06 40.56-62.62 50.35-99.2.66 0 1.32 0 2 0-0.01-.8-0.02-1.6-0.03-2.42-0.05-5.35.12-10.3 1.03-15.58-0.31-1.68-0.65-3.34-0.99-5-0.01-1.98-0.01-3.96 0.03-5.94 0-2.38 0-2.38-0.59-5.94-0.41-3.12-0.41-3.12 0.59-5.12L344 226z" fill="#E75A00" transform="translate(344,226)"/>
  <path d="M0 0c1.32 2.64.73 3.77.06 6.62-0.99 4.59-1.23 8.69-1.06 13.38.37-1.52 1.75-3.05 3.12-4.57.82-.91 1.64-1.82 2.49-2.76 2.38-2.67 4.67-5.4 6.9-8.2 1.94-1.92 4.11-3.14 6.49-4.47.36 1.28.36 1.28.73 2.6.9 3.17 1.8 6.33 2.72 9.5.48 1.66.95 3.32 1.42 4.98 8.87 30.19 23.02 57.71 43.13 81.92 1.17 1.44 2.35 2.9 3.53 4.35 1.28 1.57 2.56 3.14 3.84 4.71.93 1.14.93 1.14 1.88 2.31.87 1.07.87 1.07 1.77 2.16.52.64 1.05 1.29 1.59 1.95 1.33 1.64 1.33 1.64 3.39 2.52.33.99.66 1.98.99 3 1.48.49 1.48.49 3 1-0.29-1.03-0.29-1.03-0.57-2.07-0.84-3.08-1.67-6.16-2.5-9.25-0.29-1.07-0.59-2.14-0.89-3.25-0.27-1.02-0.55-2.05-0.83-3.11-0.39-1.42-0.39-1.42-0.78-2.87-0.43-2.45-0.43-2.45.57-5.45 7.67 19.34 10.41 42.28 10 63-6.94-1.29-12.8-3.43-19.13-6.5-0.92-.45-1.83-0.89-2.78-1.35-13.91-6.88-25.65-15.75-37.1-26.15-0.76-.68-1.52-1.36-2.31-2.05-17.64-16.55-30.15-42.1-33.61-65.95-0.03-2-0.05-4.01 0-6-.66-.33-1.32-.66-2-1-0.19-10.12-0.19-20.12 0.88-30.19.08-.75.16-1.51.24-2.28 1.65-14.3 1.65-14.3 3.9-16.53z" fill="#D64800" transform="translate(98,266)"/>
  <path d="M0 0c.33 0 .66 0 1 0 1.45 25.44-9.03 52.2-25.63 71.35-1.17 1.31-1.17 1.31-2.37 2.65-0.85.97-1.68 1.94-2.53 2.95-17.51 20.21-42.56 34.8-68.49 41.05-2.12-4.26-0.69-10.06-0.37-14.69.09-1.76.09-1.76.18-3.56.74-10.87.74-10.87 4.68-15.45 2.65-2.28 5.6-3.55 8.83-4.74 1.44-.59 2.89-1.18 4.33-1.77.73-.3 1.46-.59 2.21-.9 6.22-2.6 12.18-5.78 18.14-8.89 1.37-.71 1.37-.71 2.76-1.44 13.62-7.11 26.74-14.62 39.24-23.56 1.07-.76 2.13-1.51 3.23-2.29 5.01-3.74 7.99-6.52 9.77-12.71.38-1.14.38-1.14.76-2.29 2.61-8.39 3.38-17.01 4.24-25.71z" fill="#C73400" transform="translate(364,307)"/>
  <path d="M0 0c.33 0 .66 0 1 0 0.05 1.03 0.05 1.03.12 2.08 2.62 43.69 10.66 89.11 34.22 126.8 2.77 4.59 2.77 4.59 2.13 7.58-0.77 4.11 1.59 6.72 3.78 10.1 0.4.66.81 1.32 1.23 2 1.68 2.68 3.38 5.26 5.31 7.77 1.21 1.67 1.21 1.67 1.21 3.67 0.66 0 1.32 0 2 0 0.97 1.4 1.93 2.82 2.85 4.26 3.37 5.12 3.37 5.12 8.15 8.74 1.68 2.43 1.68 2.43 3 5-0.33.66-0.66 1.32-0.99 2-18.95-19.88-31.57-43.74-44-68-12.87 0-25.74 0-39 0-2.93 5.22-2.93 5.22-5.93 10.56-11.55 20.43-23.51 39.75-39.07 57.44-1.05 1.24-1.05 1.24-2.13 2.5-2.55 2.98-4.58 5.31-7.87 7.5 0.13-1.69 0.13-1.69 1-4 1.99-1.69 3.99-3.36 5.99-5 0.7-1.32 1.37-2.66 2-4 1.67-1.67 3.34-3.34 5-5 1.3-2.17 1.3-2.17 2-4-1.98 1.98-1.98 1.98-4 4-0.66-.33-1.32-.66-1.99-1 0.75-.8 0.75-.8 1.51-1.62 5.05-5.52 9.35-11.25 13.43-17.51.61-.92 1.22-1.85 1.84-2.8 1.75-2.68 3.49-5.38 5.22-8.07 0.45-.68 0.89-1.36 1.34-2.06 11.17-17.34 19.54-36.29 25.66-55.94 0.27-.83.53-1.66 0.8-2.51 8.24-26.38 11.58-53.09 14.2-80.49z" fill="#FDC732" transform="translate(229,39)"/>
  <path d="M0 0c.57.76 1.15 1.52 1.75 2.31 2.08 2.69 2.08 2.69 4.5 4.37.57.44 1.15.87 1.75 1.32 0 .66 0 1.32 0 2 0.66 0 1.32 0 2 0 0.55.71 1.1 1.43 1.66 2.17 2.84 3.44 5.96 5.61 9.65 8.08 1.06.71 1.06.71 2.14 1.44 13.91 9.32 28.57 17.53 43.34 25.4 1.5.8 1.5.8 3.02 1.61 1.97 1.06 3.94 2.1 5.91 3.13.9.49 1.8.97 2.73 1.47 1.21.63 1.21.63 2.44 1.28 2.29 1.54 3.58 3.12 5.11 5.42.66-.33 1.32-.66 1.99-1 1.68 7.22 2.38 14.21 2.62 21.62.04 1 .08 2.01 0.12 3.04.09 2.45.18 4.89 0.26 7.34-6.94-1.29-12.8-3.43-19.13-6.5-0.92-.45-1.83-0.89-2.78-1.35-13.91-6.88-25.65-15.75-37.1-26.15-0.76-.68-1.52-1.36-2.31-2.05-12.08-11.33-21.33-27.16-27.19-42.52-.26-.66-.52-1.33-0.78-2.02-1.29-3.58-2.01-6.6-1.72-10.41z" fill="#B72C00" transform="translate(99,333)"/>
  <path d="M0 0c.99.49.99.49 2 1-4.39 7.82-8.91 15.54-13.62 23.18-3.48 5.65-6.86 11.3-9.96 17.16-2.9 5.45-5.92 10.82-9.02 16.16-0.43.74-0.85 1.48-1.29 2.25-0.87 1.5-1.74 3-2.62 4.5-2.95 5.19-4.52 9.87-5.49 15.75-0.18.96-0.37 1.93-0.57 2.93-1.74 9.64-1.39 18.95-0.73 28.69 0.28 9.08 0.28 9.08-2.6 12.9-2.27 2-4.62 3.72-7.1 5.48-4.22 4.32-7.71 8.94-11 14.01-0.33 0-.66 0-.99 0-0.26-6.54.28-12.62 1.47-19.05 0.38-2.08.68-4.18.94-6.29 0.69-4.23 1.85-8.11 3.22-12.16.4-1.19.4-1.19.81-2.4 2.66-7.65 5.91-14.89 9.56-22.1 0.42-.83.83-1.66 1.26-2.51 7.09-14.03 14.77-27.65 22.78-41.16 2.17-3.69 4.34-7.39 6.49-11.08 1.16-1.98 2.31-3.96 3.47-5.94.74-1.28 1.49-2.56 2.24-3.84 1.05-1.8 2.1-3.59 3.15-5.39.6-1.03 1.2-2.06 1.82-3.12 1.85-3.06 3.79-6.01 5.79-8.96z" fill="#EA7406" transform="translate(159,144)"/>
  <path d="M0 0c2.27 2.11 3.87 4.22 5.46 6.89.46.78.92 1.56 1.4 2.36.75 1.27.75 1.27 1.51 2.56.53.89 1.06 1.78 1.6 2.69 2.72 4.57 5.41 9.15 8.11 13.73 1.03 1.75 2.07 3.51 3.1 5.27.53.89 1.05 1.78 1.6 2.7 4.94 8.38 10.01 16.69 15.08 24.99 4.55 7.47 9.01 14.97 13.24 22.63 2.78 5.02 5.77 9.9 8.8 14.77 2.4 3.9 4.72 7.83 7.03 11.78 3.16 5.39 6.34 10.77 9.57 16.13.72 1.21 1.45 2.42 2.17 3.64 1.7 2.83 3.42 5.65 5.15 8.46.93 1.55 1.87 3.1 2.8 4.65.45.72.9 1.45 1.37 2.2 1.08 1.8 2.05 3.67 3.01 5.55-0.33.99-0.66 1.98-0.99 3-0.55-0.94-1.1-1.88-1.67-2.84-5.26-8.99-10.59-17.93-15.96-26.85-3.97-6.59-7.91-13.18-11.69-19.88-2.74-4.86-5.64-9.59-8.62-14.31-3.78-5.97-7.32-12.04-10.75-18.21-3.5-6.29-7.2-12.46-10.92-18.61-4.84-8.01-9.65-16.04-14.46-24.07-1.28-2.15-2.57-4.3-3.87-6.45-1.82-3.03-3.63-6.06-5.44-9.1-0.57-.92-1.13-1.83-1.7-2.78-0.5-0.85-1.01-1.7-1.53-2.58-0.44-.74-0.89-1.48-1.35-2.25-1.04-2.03-1.61-3.84-2.06-6.07z" fill="#F7800B" transform="translate(233,35)"/>
  <path d="M0 0c.33 0 .66 0 1 0 0.95 6.54 1.21 12.98 1.31 19.58.02 1.13.04 2.25 0.07 3.4 0.18 10 0.32 19.99 0.45 29.99.09 6.82.22 13.63.43 20.45.1 3.71.17 7.42.24 11.13.04 1.69.09 3.38 0.16 5.06 0.5 13.12-2.2 21.14-10.41 31.63-1.46 1.7-1.46 1.7-1.24 4.02 1.42 3.91 3.6 7.12 5.93 10.55.46.69.91 1.38 1.38 2.1 1.16 1.73 2.41 3.42 3.68 5.09 0.66 0 1.32 0 2 0 1.62-2.14 3.13-4.27 4.62-6.5.42-.63.84-1.25 1.27-1.88 1.04-1.54 2.07-3.08 3.11-4.62.49.99.49.99 1 2-0.81 1.69-0.81 1.69-2.09 3.69-0.46.72-0.91 1.43-1.38 2.17-0.73 1.12-0.73 1.12-1.47 2.26-0.48.75-0.97 1.51-1.46 2.29-1.2 1.86-2.4 3.73-3.6 5.59-4.24-1.42-5.33-4.5-7.43-8.19-0.77-1.33-1.54-2.66-2.31-3.98-0.37-.65-0.74-1.3-1.12-1.97-1.26-2.14-1.26-2.14-3.55-5.04-1.59-2.82-1.59-2.82-0.97-5.11 1.34-2.64 2.96-4.86 4.72-7.23 7.69-10.92 6.81-22.25 6.53-35.14-0.01-2.35-0.03-4.71-0.03-7.06-0.04-6.15-0.13-12.3-0.23-18.45-0.09-6.3-0.13-12.59-0.18-18.89-0.09-12.31-0.24-24.63-0.43-36.94z" fill="#F45D01" transform="translate(225,179)"/>
  <path d="M0 0c.33 0 .66 0 1 0 1.65 53.17-15.91 113.03-49 155-0.66.33-1.32.66-2 1 1.69-5.07 4.63-9.23 7.57-13.63 1-1.51 2-3.02 3-4.54.44-.66.89-1.33 1.34-2.01 1.25-1.94 1.25-1.94 2.09-4.82 0.66 0 1.32 0 1.99 0 .28-.88.55-1.76.84-2.67 1.08-3.1 2.34-5.86 3.85-8.77 7.5-14.46 7.5-14.46 12.59-29.86.68-2.54 1.55-4.81 2.59-7.22 2.44-6.01 4.08-12.14 5.63-18.42.31-1.22.61-2.44.92-3.69 4.77-19.85 7.02-40.04 8.58-60.37z" fill="#EC6301" transform="translate(227,40)"/>
  <path d="M0 0c.33 0 .66 0 1 0 1.46 12.95 1.09 25.98 1 39 .66 0 1.32 0 2 0 0-5.61 0-11.22 0-17 0.33 0 .66 0 1 0 .11 27.68.08 55.33-1 83-2.69-2.69-2.3-4.12-2.4-7.88-0.04-1.25-0.07-2.49-0.11-3.77-0.03-1.38-0.06-2.76-0.08-4.14-0.04-1.43-0.08-2.87-0.12-4.3-0.41-16.34-0.62-32.68-0.83-49.03-0.05-4.07-0.1-8.14-0.16-12.21-0.1-7.89-0.21-15.78-0.3-23.67z" fill="#F58E00" transform="translate(226,172)"/>
  <path d="M0 0c2.64 3.17 3.99 6.26 5.43 10.12 2.94 7.64 6.32 15.07 9.75 22.5 0.53 1.14 1.05 2.28 1.59 3.45 3.59 7.74 7.75 14.79 12.35 21.97 1.19 1.88 2.37 3.76 3.54 5.66 2.5 4.05 5.02 7.97 8.03 11.67.47.57.93 1.14 1.41 1.73 0.91 1.12 1.84 2.22 2.78 3.3 2.09 2.55 3.16 3.96 2.92 7.3-0.94 3.85-2.32 7.43-3.86 11.07-0.3.73-0.6 1.46-0.92 2.21-0.96 2.32-1.93 4.64-2.9 6.95-0.65 1.55-1.29 3.11-1.93 4.66-2.7 6.48-5.42 12.95-8.19 19.41-1.25-3.73-0.6-4.67.87-8.24 0.43-1.04.85-2.08 1.29-3.16 0.46-1.11.92-2.21 1.4-3.35 0.46-1.13.91-2.26 1.39-3.42 1.99-4.89 4.02-9.78 6.08-14.65.29-.68.57-1.36.87-2.06 0.73-1.75 1.48-3.49 2.23-5.23 0.99-3.31 1.07-4.68-0.13-7.89-1.53-2.26-3.08-4.37-4.75-6.5-29.25-38.67-29.25-38.67-29.25-51.5-0.66-.33-1.32-.66-2-1-0.68-1.65-0.68-1.65-1.32-3.82-1.55-4.99-3.58-9.71-5.7-14.49z" fill="#F56000" transform="translate(253,213)"/>
  <path d="M0 0c.33 0 .66 0 1 0 0.09.81.18 1.63 0.28 2.48 2.34 19.82 5.15 39.29 10.72 58.52.3 1.24.61 2.49.93 3.77 5.88 23.41 16.39 45.37 29.98 65.26.36.65.72 1.3 1.09 1.97-0.33.66-0.66 1.32-0.99 2C15.6 97.89-1.87 45.27 0 0z" fill="#FD8C06" transform="translate(231,51)"/>
  <path d="M0 0c.66.33 1.32.66 2 1-4.39 7.82-8.91 15.54-13.62 23.18-3.48 5.65-6.86 11.3-9.96 17.16-2.9 5.45-5.92 10.82-9.02 16.16-0.43.74-0.85 1.48-1.29 2.25-0.87 1.5-1.74 3-2.62 4.5-2.59 4.55-4.16 8.62-5.02 13.8 0 0-2 3-2 3s-.66 0-1.34 0c-.28.94-.57 1.89-0.87 2.87-1.13 3.13-1.13 3.13-3.13 5.13 0.88-4.75 0.88-4.75 2-7-0.66-.33-1.32-.66-2-1 13.75-25.54 28.19-50.6 43.36-75.31 1.56-2.56 3.11-5.12 4.64-7.69z" fill="#F4790A" transform="translate(159,144)"/>
  <path d="M0 0c.49 1.48.49 1.48 1 3-1.34 2.67-2.74 5.14-4.31 7.68-.68 1.13-.68 1.13-1.37 2.28-3.54 5.84-7.15 11.65-10.83 17.42-2.5 3.95-4.81 7.98-7.07 12.08-2.89 5.17-5.95 10.25-8.98 15.35-0.71 1.19-1.42 2.39-2.13 3.59-8.67 14.59-17.36 29.17-26.31 43.6 0-3 0-3 1.33-5.69 0.66-1.07 1.33-2.14 2.01-3.24.56-.88.56-.88 1.12-1.77 1.15-1.88 2.33-3.75 3.5-5.62 1.52-2.43 3.02-4.86 4.53-7.3 0.38-.61.76-1.22 1.14-1.84 3.32-5.37 6.45-10.83 9.56-16.32 2.52-4.43 5.14-8.8 7.77-13.16 1.04-1.73 2.08-3.46 3.12-5.19 0.5-.83 1.01-1.66 1.52-2.52 1.98-3.28 3.95-6.57 5.92-9.85 0.72-1.19 1.43-2.37 2.14-3.56 0.37-.62.74-1.23 1.12-1.87 5.41-9.02 10.83-18.05 16.24-27.07z" fill="#EF6D07" transform="translate(222,38)"/>
  <path d="M0 0c1.41 4.47.01 7.65-1.57 11.89-0.43 1.16-0.43 1.16-0.86 2.35-0.92 2.53-1.87 5.05-2.82 7.57-0.32.86-0.64 1.72-0.97 2.6-9.27 24.84-20.46 48.3-36.28 69.71-0.49.67-0.98 1.34-1.49 2.03-2.35 3.08-4.26 5.56-8.01 6.85 0.39-.51 0.78-1.02 1.18-1.54 0.52-.69 1.04-1.38 1.57-2.09 0.52-.67 1.03-1.35 1.55-2.04 1.99-2.72 3.85-5.52 5.7-8.33 0.79-1.18 1.58-2.35 2.37-3.52 2.57-3.81 5.11-7.64 7.63-11.48 0.56-.84 1.11-1.68 1.67-2.54 12.63-20.09 20.38-43.38 28.02-65.7C-1 2-1 2 0 0z" fill="#F15600" transform="translate(212,191)"/>
  <path d="M0 0c.66 0 1.32 0 2 0 3.55 3.55 6.13 7.65 8.75 11.93 0.95 1.53.95 1.53 1.92 3.09 1.33 2.98 1.33 2.98 0.76 5.38-0.7 4.15 1.61 6.75 3.82 10.16 0.4.66.81 1.32 1.23 2 1.68 2.68 3.38 5.26 5.31 7.77 1.21 1.67 1.21 1.67 1.21 3.67 0.66 0 1.32 0 2 0 0.97 1.4 1.93 2.82 2.85 4.26 3.37 5.12 3.37 5.12 8.15 8.74 1.68 2.43 1.68 2.43 3 5-0.5.99-0.5.99-1 2-15.56-16.33-31.25-37.3-38-59-0.66-1.68-1.32-3.35-1.99-5.02z" fill="#FDBC28" transform="translate(253,155)"/>
  <path d="M-3 1c.99 0 1.98 0 3 0 0.6 5.01-0.55 8.43-3.45 12.3-0.49.62-0.98 1.24-1.48 1.88-0.5.66-1 1.32-1.52 1.99-1.5 1.96-3.02 3.89-4.55 5.83-0.79 1.01-1.59 2.02-2.41 3.07-13.66 16.96-13.66 16.96-17.59 18.93 0.13-1.69 0.13-1.69 1-4 1.99-1.69 3.99-3.36 5.99-5 0.7-1.32 1.37-2.66 2-4 1.67-1.67 3.34-3.34 5-5 1.3-2.17 1.3-2.17 2-4-1.32 1.32-2.64 2.64-4 4-0.66-.33-1.32-.66-2-1 0.47-.48.93-0.96 1.4-1.45 5.12-5.49 9.25-11.31 13.19-17.68 1.06-1.67 2.23-3.28 3.41-4.87z" fill="#FCB82C" transform="translate(186,185)"/>
  <path d="M0 0c.33.66.66 1.32 1 2-1.03 2.5-1.03 2.5-2.62 5.56-0.83 1.62-0.83 1.62-1.68 3.27-1.41 2.64-2.88 5.21-4.38 7.79-6.84 12.09-7.43 26.28-7.88 39.81-0.04 1.21-0.08 2.42-0.13 3.66-0.1 2.97-0.21 5.94-0.31 8.91 0.99.33 1.98.66 3 0.99-1.32.99-2.64 1.98-4 3-4.58-22.42-0.85-45.73 11-65 0.96-1.63 0.96-1.63 1.93-3.28 1.33-2.26 2.68-4.5 4.07-6.72z" fill="#F9B331" transform="translate(134,190)"/>
  <path d="M0 0c.56 1.88.56 1.88 1 4 0 1.78 0 1.78-1.56 3.62-4.21 5.25-8.29 10.95-10.44 17.38-0.66 0-1.32 0-2 0-0.04 1.01-0.08 2.02-0.12 3.06-0.57 4.16-2.58 6.19-5.39 9.18-2.2 2.6-3.21 5.62-4.49 8.76-1.31 1.67-2.65 3.34-4 5-1.19 2.63-2.08 5.25-3 8-4.33 4.66-4.33 4.66-7 6 1.82-5.02 4.52-9.46 7.26-14.01 2.22-3.74 2.22-3.74 2.74-7.99 0.66 0 1.32 0 1.98 0 1.43-1.99 1.43-1.99 2.84-4.59.57-.98 1.13-1.97 1.71-2.99.6-1.07 1.21-2.14 1.83-3.24 6.26-10.92 12.81-21.6 19.63-32.18z" fill="#F39B1B" transform="translate(188,99)"/>
  <path d="M0 0c3.22 1.38 5.03 2.92 7.25 5.62 11.41 13.43 24.93 23.81 40.85 31.38 1.03.49 1.03.49 2.08 1 0.7.33 1.39.66 2.11 1 1.71 1 1.71 1 2.71 3-20.44-2.82-41.09-23.81-53.94-38.52L0 0z" fill="#B01F03" transform="translate(120,376)"/>
  <path d="M0 0c-0.52.8-0.52.8-1.06 1.62-2.49 6.31 2.05 13.47 4.56 19.25 3.67 8.65 7.19 17.33 10.5 26.13.37.98.74 1.96 1.13 2.97 1.97 5.3 3.62 10.51 4.87 16.03-0.99.49-0.99.49-1.99 1-0.37-1.3-0.37-1.3-0.75-2.63-3.9-13.13-9.05-25.71-14.25-38.37-0.55-1.34-0.55-1.34-1.11-2.71-1.5-3.66-2.99-7.31-4.51-10.97-1.14-2.77-2.27-5.54-3.38-8.32L0 0z" fill="#ED5C02" transform="translate(160,295)"/>
  <path d="M0 0c.33 0 .66 0 1 0 0.72 10.02 1.14 19.94 1 30-0.66-.66-1.32-1.32-2-2-0.99 5.61-1.98 11.22-3 17-0.33 0-0.66 0-1 0 0.69-15.06 2.39-30.03 4-45z" fill="#FDD843" transform="translate(229,39)"/>
  <path d="M0 0c0 5.98-2.23 8.83-6.12 13.25-0.5.57-0.99 1.14-1.5 1.73-1 1.15-1.99 2.29-2.99 3.43-1.2 1.37-2.38 2.76-3.56 4.14-2.53 2.96-4.56 5.27-7.83 7.45 0.13-1.69 0.13-1.69 1-4 1.99-1.69 3.99-3.36 5.99-5 0.7-1.32 1.37-2.66 2-4 1.65-1.69 3.32-3.36 5-5 2.31-2.72 2.31-2.72 3.44-6 0.78-2.78 2.46-4.1 4.57-6zm-7 5c.66.66 1.32 1.32 2 2-1.65 1.65-3.3 3.3-5 5-0.66-.33-1.32-.66-2-1 1.65-1.98 3.3-3.96 5-5z" fill="#FBAE23" transform="translate(177,199)"/>
  <path d="M0 0c6.19 4.37 7.7 16.3 9.03 23.44-2-1-2-1-2.77-2.77-0.24-.75-0.49-1.5-0.73-2.27-0.27-.81-0.53-1.62-0.8-2.45-0.27-.85-0.54-1.7-0.82-2.58-0.28-.85-0.56-1.7-0.84-2.58-0.69-2.12-1.36-4.23-2.04-6.35-1.31 0-2.63 0-3.99 0-0.33-1.32-0.66-2.64-1-4C-2-1-2-1 0 0z" fill="#F76500" transform="translate(236.96,168.55)"/>
  <path d="M0 0c2.38 3.57 2.44 5.74 2.75 10 0.09 1.23.19 1.47 0.29 2.75-0.04 3.25-0.04 3.25-2.04 6.25-1.49-3-1.41-6.15-1.62-9.44-0.05-.68-0.1-1.37-0.16-2.07-0.21-3.18-0.23-5.44 0.78-8.49z" fill="#C93302" transform="translate(186,392)"/>
  <path d="M0 0c.66 0 1.32 0 2 0 1.45 2.07 2.77 4.13 4.06 6.31.36.59.73 1.19 1.1 1.8 1.58 2.61 2.87 4.99 3.84 7.89-1.44 2.68-1.44 2.68-3 4.98-1-2-1-2-0.5-3.88 0.56-2.41 0.24-3.79-0.5-6.12-0.66 0-1.32 0-2 0-0.65-1.27-1.3-2.55-1.94-3.82-0.36-.71-0.72-1.41-1.09-2.14-0.97-3-0.97-3-1.97-6z" fill="#F16601" transform="translate(233,288)"/>
  <path d="M0 0c.33.66.66 1.32 1 2-0.97 2.01-1.96 4.01-3 6-0.12.68-0.24 1.36-0.37 2.06-1 3.1-3.25 4.79-5.63 6.94-0.66.33-1.32.66-2 0.99 1.53-4.28 3.72-8 6.13-11.82 0.37-.59.75-1.19 1.13-1.81 0.91-1.46 1.83-2.92 2.74-4.36z" fill="#F6AB28" transform="translate(160,146)"/>
  <path d="M0 0c5.05 5.05 6.49 12.09 7 19-3.14-1.57-3.54-4.67-4.63-7.82-0.23-.63-0.46-1.26-0.7-1.91-1.17-3.32-1.67-5.7-1.67-9.27z" fill="#F56200" transform="translate(246,193)"/>
  <path d="M0 0c2.39 3.82 2.55 7.59 3 12-1.32-.33-2.64-.66-4-1 0-.99 0-1.98 0-3-0.66-.33-1.32-.66-2-1 0.66-.66 1.32-1.32 2-2 0.65-2.58 0.65-2.58 1-5.12z" fill="#ED7201" transform="translate(182,375)"/>
  <path d="M0 0c.66 0 1.32 0 2 0 1.06 1.81 1.06 1.81 2 4-0.33.99-0.66 1.98-0.99 3-0.23 2.05-0.41 4.12-0.57 6.18-0.08 1.09-0.17 2.18-0.25 3.3-0.06.83-0.12 1.66-0.18 2.52-0.33 0-.66 0-.99 0-0.33-6.27-0.66-12.54-0.99-18.81z" fill="#F89A14" transform="translate(229,32)"/>
  <path d="M0 0c.99 0 1.98 0 3 0 1.42 3.82 2.24 6.91 2 11-0.66-.66-1.32-1.32-2-2 0-.99 0-1.98 0-3-0.99.33-1.98.66-3 0.99 0-2.31 0-4.62 0-6.93z" fill="#F57D05" transform="translate(349,237)"/>
  <path d="M0 0c.33.99.66 1.98 1 3-3.3 3.63-6.6 7.26-10 11-0.66-.33-1.32-.66-2-1 3.63-4.29 7.26-8.58 11-13z" fill="#EF6C01" transform="translate(176,205)"/>
  <path d="M0 0c.73 2.54 1.04 3.8.43 6.43-1.93 3.46-4.28 5.17-7.43 7.57 1.47-5.32 3.99-9.47 7-14z" fill="#F7B02D" transform="translate(142,176)"/>
  <path d="M0 0c3.76 3.76 3.91 5.9 5 11-0.99.33-1.98.66-2.98.99-0.66-3.96-1.32-7.92-1.98-11.88z" fill="#F16704" transform="translate(353,243)"/>
  <path d="M0 0c1.56 1.68 1.56 1.68 3 4-0.25 3.37-0.59 4.58-3 7 1.12-7.63 1.12-7.63 0-11z" fill="#F98F07" transform="translate(341,220)"/>
  <path d="M0 0c.66.33 1.32.66 2 1 0.59 2.64 0.74 5.29 1 8-0.33-.66-0.66-1.32-1-2-0.99 0-1.98 0-3 0 0.33-2.31 0.66-4.62 1-6.93z" fill="#F06803" transform="translate(358,257)"/>
  <path d="M0 0c.68 1.73.68 1.73 1 4-1.21 2.14-1.21 2.14-2.93 4.25-0.57.7-1.13 1.41-1.72 2.14-0.66.79-0.66.79-1.35 1.61-0.33-.66-0.66-1.32-1-2 1.22-2.39 1.22-2.39 2.94-5.13 0.85-1.37 0.85-1.37 1.72-2.76 0.44-.7.89-1.4 1.34-2.11z" fill="#F6AB26" transform="translate(149,164)"/>
  <path d="M0 0c.33 0 .66 0 1 0 0.14.78 0.28 1.56 0.43 2.37 0.44 2.59 0.44 2.59 1.57 4.63 0.99.33 1.98.66 3 0.99-1.98.66-3.96 1.32-5.94 1.98-1.64-3.29-0.51-6.43 0.94-9.97z" fill="#B52D03" transform="translate(266,415)"/>
  <path d="M-3 1c.99 0 1.98 0 3 0 0 1.98 0 3.96 0 5.94-1.32 0-2.64 0-3.96 0 0.33-1.98 0.66-3.96 0.96-5.94z" fill="#FCB228" transform="translate(186,185)"/>
  <path d="M0 3c4.02 1.34 4.88 3.42 7 7 0 .66 0 1.32 0 2-0.66 0-1.32 0-2 0-1.02-1.66-2.02-3.33-3-5-0.66-.33-1.32-.66-2-1 0-.99 0-1.98 0-3z" fill="#FBB721" transform="translate(309,168)"/>
  <path d="M0 0c.33 0 .66 0 1 0 0 2.64 0 5.28 0 8 0.99.33 1.98.66 3 0.99-1.32.99-2.64 1.98-4 3 0-3.96 0-7.92 0-11.88z" fill="#FBBB34" transform="translate(117,253)"/>
  <path d="M0 0c.66.33 1.32.66 2 1-3.46 2.97-3.46 2.97-7 6-0.66-.33-1.32-.66-2-1 2.31-1.98 4.62-3.96 7-6z" fill="#BB2102" transform="translate(322,393)"/>
  <path d="M0 0c1.35 4.05.62 6.79 0 11-0.66-.33-1.32-.66-2-1 0.88-7.75 0.88-7.75 2-10z" fill="#DD4402" transform="translate(270,385)"/>
  <path d="M0 0c.81 1.62.81 1.62 1 4-1.46 2.24-3.15 4.02-5 6 0-4.25 1.82-6.39 4-10z" fill="#F49C19" transform="translate(194,88)"/>
</svg>